<svg width="28" height="28" viewBox="0 0 28 28" fill="none" xmlns="http://www.w3.org/2000/svg">
<path fill-rule="evenodd" clip-rule="evenodd" d="M13.8148 27.5185C21.3831 27.5185 27.5185 21.3832 27.5185 13.8148C27.5185 6.24647 21.3831 0.111115 13.8148 0.111115C6.24644 0.111115 0.111084 6.24647 0.111084 13.8148C0.111084 21.3832 6.24644 27.5185 13.8148 27.5185ZM19.3248 19.3248C18.5496 20.1 17.7098 19.6478 17.3868 19.3248L13.8338 15.7718L10.2808 19.3248C9.95781 19.6478 9.11801 20.1 8.34281 19.3248C7.56762 18.5496 8.01981 17.7098 8.34281 17.3868L11.8958 13.8338L8.34281 10.2808C8.01981 9.95784 7.56762 9.11804 8.34281 8.34284C9.11801 7.56764 9.95781 8.01984 10.2808 8.34284L13.8338 11.8958L17.3868 8.34284C17.7098 8.01984 18.5496 7.56764 19.3248 8.34284C20.1 9.11804 19.6478 9.95784 19.3248 10.2808L15.7718 13.8338L19.3248 17.3868C19.6478 17.7098 20.1 18.5496 19.3248 19.3248Z" fill="#485679"/>
</svg>
