<svg width="24" height="24" viewBox="0 0 24 24" fill="none" xmlns="http://www.w3.org/2000/svg">
<path d="M23.5 12C23.5 18.3513 18.3513 23.5 12 23.5C5.64871 23.5 0.5 18.3513 0.5 12C0.5 5.64871 5.64871 0.5 12 0.5C18.3513 0.5 23.5 5.64871 23.5 12Z" stroke="#63707D"/>
<path d="M11.6893 18.1535L11.6892 18.1534L10.9172 16.8153L11.6043 16.1292L11.6053 16.1282L11.8641 15.8698L11.751 15.6509V8.1951V7.6951H11.251H7.90117C7.14922 7.6951 6.69439 8.49971 7.05769 9.1356L9.7101 13.8795L10.751 15.8939V16.5272L6.63155 9.38708C6.63155 9.38708 6.63155 9.38708 6.63154 9.38708C6.06824 8.41069 6.77536 7.19763 7.9022 7.19763H16.0972H16.0982C17.2238 7.19763 17.9312 8.41258 17.3689 9.38704L12.3102 18.1534L12.3101 18.1535C12.1725 18.3923 11.8269 18.3923 11.6893 18.1535ZM12.2464 15.7744L13.1905 16.004L14.2883 13.8805L16.9397 9.13447C17.3029 8.4986 16.8481 7.69407 16.0962 7.69407H12.7464H12.2464V8.19407V15.7744Z" fill="#63707D" stroke="#63707D"/>
</svg>
