<svg width="14" height="14" viewBox="0 0 14 14" fill="none" xmlns="http://www.w3.org/2000/svg">
<path d="M7 13C10.3137 13 13 10.3137 13 7C13 3.68629 10.3137 1 7 1C3.68629 1 1 3.68629 1 7C1 10.3137 3.68629 13 7 13Z" fill="#63707D"/>
<path d="M7.6 6.78947C7.6 6.4581 7.33137 6.18947 7 6.18947C6.66863 6.18947 6.4 6.4581 6.4 6.78947H7.6ZM6.4 9.52632C6.4 9.85769 6.66863 10.1263 7 10.1263C7.33137 10.1263 7.6 9.85769 7.6 9.52632H6.4ZM6.89474 4.57895V3.97895C6.56337 3.97895 6.29474 4.24758 6.29474 4.57895H6.89474ZM6.89474 4.78947H6.29474C6.29474 5.12084 6.56337 5.38947 6.89474 5.38947V4.78947ZM7.10526 4.78947V5.38947C7.43663 5.38947 7.70526 5.12084 7.70526 4.78947H7.10526ZM7.10526 4.57895H7.70526C7.70526 4.24758 7.43663 3.97895 7.10526 3.97895V4.57895ZM12.4 7C12.4 9.98234 9.98234 12.4 7 12.4V13.6C10.6451 13.6 13.6 10.6451 13.6 7H12.4ZM7 12.4C4.01766 12.4 1.6 9.98234 1.6 7H0.4C0.4 10.6451 3.35492 13.6 7 13.6V12.4ZM1.6 7C1.6 4.01766 4.01766 1.6 7 1.6V0.4C3.35492 0.4 0.4 3.35492 0.4 7H1.6ZM7 1.6C9.98234 1.6 12.4 4.01766 12.4 7H13.6C13.6 3.35492 10.6451 0.4 7 0.4V1.6ZM6.4 6.78947V9.52632H7.6V6.78947H6.4ZM6.29474 4.57895V4.78947H7.49474V4.57895H6.29474ZM6.89474 5.38947H7.10526V4.18947H6.89474V5.38947ZM7.70526 4.78947V4.57895H6.50526V4.78947H7.70526ZM7.10526 3.97895H6.89474V5.17895H7.10526V3.97895Z" fill="#131A22"/>
</svg>
