<svg width="15" height="13" viewBox="0 0 15 13" fill="none" xmlns="http://www.w3.org/2000/svg">
<path d="M8.48559 3.55072C8.48559 3.90971 8.77661 4.20072 9.13559 4.20072C9.49458 4.20072 9.78559 3.90971 9.78559 3.55072H8.48559ZM9.78559 8.88406C9.78559 8.52507 9.49458 8.23406 9.13559 8.23406C8.77661 8.23406 8.48559 8.52507 8.48559 8.88406H9.78559ZM5.0678 5.68333C4.70881 5.68333 4.4178 5.97435 4.4178 6.33333C4.4178 6.69232 4.70881 6.98333 5.0678 6.98333V5.68333ZM14.3333 6.33333L14.7988 6.787C15.0448 6.53458 15.0448 6.13209 14.7988 5.87967L14.3333 6.33333ZM12.2 3.213C11.9494 2.95591 11.5379 2.95062 11.2808 3.20117C11.0237 3.45172 11.0184 3.86324 11.269 4.12033L12.2 3.213ZM11.269 8.54634C11.0184 8.80342 11.0237 9.21495 11.2808 9.4655C11.5379 9.71605 11.9494 9.71075 12.2 9.45366L11.269 8.54634ZM9.78559 3.55072V2.27536H8.48559V3.55072H9.78559ZM9.78559 2.27536C9.78559 1.91117 9.66004 1.45229 9.37111 1.07112C9.06358 0.665408 8.5688 0.35 7.89266 0.35V1.65C8.12047 1.65 8.24716 1.74039 8.3351 1.85642C8.44165 1.99698 8.48559 2.17579 8.48559 2.27536H9.78559ZM1.65 2.27536C1.65 2.17579 1.69394 1.99698 1.80049 1.85642C1.88844 1.74039 2.01512 1.65 2.24294 1.65V0.35C1.5668 0.35 1.07201 0.665408 0.764483 1.07112C0.475553 1.45229 0.35 1.91117 0.35 2.27536H1.65ZM2.24294 1.65H7.89266V0.35H2.24294V1.65ZM8.48559 8.88406V10.3913H9.78559V8.88406H8.48559ZM8.48559 10.3913C8.48559 10.4909 8.44165 10.6697 8.3351 10.8103C8.24716 10.9263 8.12047 11.0167 7.89266 11.0167V12.3167C8.5688 12.3167 9.06358 12.0013 9.37111 11.5955C9.66004 11.2144 9.78559 10.7555 9.78559 10.3913H8.48559ZM0.35 10.3913C0.35 10.7555 0.475553 11.2144 0.764483 11.5955C1.07201 12.0013 1.5668 12.3167 2.24294 12.3167V11.0167C2.01512 11.0167 1.88844 10.9263 1.80049 10.8103C1.69394 10.6697 1.65 10.4909 1.65 10.3913H0.35ZM2.24294 12.3167H7.89266V11.0167H2.24294V12.3167ZM1.65 10.3913V2.27536H0.35V10.3913H1.65ZM5.0678 6.98333H14.3333V5.68333H5.0678V6.98333ZM14.7988 5.87967L12.2 3.213L11.269 4.12033L13.8678 6.787L14.7988 5.87967ZM13.8678 5.87967L11.269 8.54634L12.2 9.45366L14.7988 6.787L13.8678 5.87967Z" fill="#63707D"/>
</svg>
