<svg width="16" height="16" viewBox="0 0 16 16" fill="none" xmlns="http://www.w3.org/2000/svg">
<path d="M8.50941 5.82285C8.50941 6.099 8.73327 6.32285 9.00941 6.32285C9.28555 6.32285 9.50941 6.099 9.50941 5.82285H8.50941ZM9.50941 10.5636C9.50941 10.2875 9.28555 10.0636 9.00941 10.0636C8.73327 10.0636 8.50941 10.2875 8.50941 10.5636H9.50941ZM5.39359 7.79628C5.11745 7.79628 4.89359 8.02014 4.89359 8.29628C4.89359 8.57243 5.11745 8.79628 5.39359 8.79628V7.79628ZM13.6296 8.29628L13.9877 8.64526C14.1769 8.45109 14.1769 8.14148 13.9877 7.94731L13.6296 8.29628ZM11.6776 5.57694C11.4849 5.37918 11.1683 5.3751 10.9705 5.56784C10.7728 5.76057 10.7687 6.07712 10.9614 6.27488L11.6776 5.57694ZM10.9614 10.3177C10.7687 10.5154 10.7728 10.832 10.9705 11.0247C11.1683 11.2175 11.4849 11.2134 11.6776 11.0156L10.9614 10.3177ZM9.50941 5.82285V4.6892H8.50941V5.82285H9.50941ZM9.50941 4.6892C9.50941 4.3813 9.40269 3.99017 9.15678 3.66574C8.89655 3.32244 8.47877 3.05554 7.90458 3.05554V4.05554C8.1339 4.05554 8.26853 4.14935 8.35985 4.26982C8.46547 4.40916 8.50941 4.58486 8.50941 4.6892H9.50941ZM2.27777 4.6892C2.27777 4.58486 2.32171 4.40916 2.42733 4.26982C2.51865 4.14935 2.65328 4.05554 2.8826 4.05554V3.05554C2.30841 3.05554 1.89063 3.32244 1.63041 3.66574C1.38449 3.99017 1.27777 4.3813 1.27777 4.6892H2.27777ZM2.8826 4.05554H7.90458V3.05554H2.8826V4.05554ZM8.50941 10.5636V11.9034H9.50941V10.5636H8.50941ZM8.50941 11.9034C8.50941 12.0077 8.46547 12.1834 8.35985 12.3227C8.26853 12.4432 8.1339 12.537 7.90458 12.537V13.537C8.47877 13.537 8.89655 13.2701 9.15678 12.9268C9.40269 12.6024 9.50941 12.2113 9.50941 11.9034H8.50941ZM1.27777 11.9034C1.27777 12.2113 1.38449 12.6024 1.63041 12.9268C1.89063 13.2701 2.30841 13.537 2.8826 13.537V12.537C2.65328 12.537 2.51865 12.4432 2.42733 12.3227C2.32171 12.1834 2.27777 12.0077 2.27777 11.9034H1.27777ZM2.8826 13.537H7.90458V12.537H2.8826V13.537ZM2.27777 11.9034V4.6892H1.27777V11.9034H2.27777ZM5.39359 8.79628H13.6296V7.79628H5.39359V8.79628ZM13.9877 7.94731L11.6776 5.57694L10.9614 6.27488L13.2715 8.64526L13.9877 7.94731ZM13.2715 7.94731L10.9614 10.3177L11.6776 11.0156L13.9877 8.64526L13.2715 7.94731Z" fill="white"/>
</svg>
