<svg width="39" height="39" viewBox="0 0 39 39" fill="none" xmlns="http://www.w3.org/2000/svg">
<path d="M0.444051 22.9801H4.24813C5.90491 29.6881 12.0228 34.6666 19.3165 34.6666C24.6945 34.6666 29.4332 31.9599 32.2156 27.8489C32.6605 27.1917 32.4056 26.3178 31.712 25.924C30.9914 25.5148 30.0777 25.7818 29.6003 26.4543C27.329 29.6537 23.5697 31.745 19.3165 31.745C13.6671 31.745 8.88912 28.0554 7.31209 22.9801H11.5992C11.994 22.9801 12.1917 22.508 11.9125 22.2319L6.92663 17.3014L6.33497 16.7163C6.1619 16.5451 5.88131 16.5451 5.70824 16.7163L3.82393 18.5797L0.130688 22.2319C-0.148489 22.508 0.0492355 22.9801 0.444051 22.9801Z" fill="white"/>
<path d="M38.556 16.0198H34.7519C33.0951 9.31169 26.9772 4.33325 19.6835 4.33325C14.3055 4.33325 9.56679 7.03994 6.78435 11.1509C6.33952 11.8082 6.59443 12.682 7.28797 13.0758C8.00855 13.485 8.92225 13.2181 9.39968 12.5456C11.671 9.34612 15.4303 7.25488 19.6835 7.25488C25.3329 7.25488 30.1109 10.9444 31.6879 16.0198H27.4008C27.006 16.0198 26.8083 16.4918 27.0875 16.7679L32.0734 21.6985L32.665 22.2836C32.8381 22.4547 33.1187 22.4547 33.2917 22.2836L35.1761 20.4202L38.8693 16.7679C39.1485 16.4918 38.9508 16.0198 38.556 16.0198Z" fill="white"/>
</svg>
