<svg width="18" height="18" viewBox="0 0 18 18" fill="none" xmlns="http://www.w3.org/2000/svg">
<path opacity="0.1" d="M15.1087 10.2965C14.8335 11.6944 14.0824 12.9536 12.9834 13.86C11.8843 14.7665 10.5051 15.2641 9.08043 15.2682C7.65579 15.2723 6.27374 14.7827 5.16944 13.8826C4.06514 12.9825 3.30682 11.7276 3.02353 10.3314C2.74023 8.93523 2.94945 7.484 3.61559 6.22469C4.28174 4.96538 5.36364 3.97578 6.67721 3.42429C7.99078 2.8728 9.45486 2.79348 10.8203 3.19984C12.1858 3.6062 13.3683 4.47313 14.1666 5.65311" stroke="white"/>
<path opacity="0.1" d="M14.5462 2.20782L14.3015 5.84439L10.665 5.59689" stroke="white"/>
<path d="M15.1087 10.2965C14.8335 11.6944 14.0824 12.9536 12.9834 13.86C11.8843 14.7665 10.5051 15.2641 9.08043 15.2682C7.65579 15.2723 6.27374 14.7827 5.16944 13.8826C4.06514 12.9825 3.30682 11.7276 3.02353 10.3314C2.74023 8.93523 2.94945 7.484 3.61559 6.22469C4.28174 4.96538 5.36364 3.97578 6.67721 3.42429C7.99078 2.8728 9.45486 2.79348 10.8203 3.19984C12.1858 3.6062 13.3683 4.47313 14.1666 5.65311" stroke="white"/>
<path d="M14.5462 2.20782L14.3015 5.84439L10.665 5.59689" stroke="white"/>
</svg>
