<svg width="24" height="24" viewBox="0 0 24 24" fill="none" xmlns="http://www.w3.org/2000/svg">
<path d="M12 24C18.6274 24 24 18.6274 24 12C24 5.37257 18.6274 0 12 0C5.37257 0 0 5.37257 0 12C0 18.6274 5.37257 24 12 24Z" fill="url(#paint0_linear_20_138)"/>
<path d="M16.0972 6.69766H7.9022C6.39543 6.69766 5.4404 8.32302 6.19846 9.63698L11.2561 18.4033C11.5862 18.9757 12.4133 18.9757 12.7433 18.4033L17.802 9.63698C18.559 8.32512 17.604 6.69766 16.0982 6.69766H16.0972ZM11.252 15.7744L10.1505 13.6427L7.49278 8.88925C7.31746 8.58501 7.53401 8.19513 7.90117 8.19513H11.251V15.7754L11.252 15.7744ZM16.5046 8.88822L13.8479 13.6437L12.7464 15.7744V8.19411H16.0962C16.4633 8.19411 16.6799 8.58398 16.5046 8.88822Z" fill="white"/>
<defs>
<linearGradient id="paint0_linear_20_138" x1="12" y1="0" x2="12" y2="24" gradientUnits="userSpaceOnUse">
<stop stop-color="#5BB7FF"/>
<stop offset="1" stop-color="#1196FF"/>
</linearGradient>
</defs>
</svg>
