<svg width="24" height="24" viewBox="0 0 24 24" fill="none" xmlns="http://www.w3.org/2000/svg">
<g clip-path="url(#clip0_20_159)">
<path d="M12 0C18.6271 0 24 5.37288 24 12C24 18.6271 18.6269 24 12 24C5.37312 24 0 18.6286 0 12C0 5.37144 5.37216 0 12 0Z" fill="#5EC8A7"/>
<path d="M13.4811 10.4011V8.61601H17.5632V5.89609H6.44738V8.61601H10.53V10.3997C7.21202 10.5521 4.71722 11.2092 4.71722 11.9964C4.71722 12.7836 7.21322 13.4407 10.53 13.5941V19.3121H13.482V13.5936C16.794 13.4407 19.2838 12.7841 19.2838 11.9976C19.2838 11.2111 16.794 10.5545 13.482 10.4016M13.482 13.1093V13.1078C13.3987 13.1131 12.9708 13.1388 12.018 13.1388C11.2563 13.1388 10.7203 13.1172 10.5315 13.1074V13.1098C7.6001 12.9799 5.41202 12.4694 5.41202 11.8586C5.41202 11.2478 7.60034 10.7381 10.5315 10.608V12.6012C10.7235 12.6144 11.2726 12.6468 12.0305 12.6468C12.9408 12.6468 13.3985 12.6089 13.4825 12.6012V10.608C16.4081 10.7383 18.5911 11.2493 18.5911 11.8579C18.5911 12.4666 16.4071 12.9778 13.4825 13.1081" fill="white"/>
</g>
<defs>
<clipPath id="clip0_20_159">
<rect width="24" height="24" fill="white"/>
</clipPath>
</defs>
</svg>
