<svg width="23" height="23" viewBox="0 0 23 23" fill="none" xmlns="http://www.w3.org/2000/svg">
<path d="M8.57592 13.01C10.396 12.9429 13.9754 13.5335 13.7327 16.4329C13.6518 16.9162 13.2945 17.037 13.126 17.037H8.57592L4.02583 17.037C3.85731 17.037 3.50004 16.9162 3.41915 16.4329C3.17648 13.5335 6.75588 12.9429 8.57592 13.01Z" fill="white"/>
<path d="M11.4071 8.78175C11.4071 10.3386 10.1395 11.6006 8.57592 11.6006C7.0123 11.6006 5.74475 10.3386 5.74475 8.78175C5.74475 7.22494 7.0123 5.96289 8.57592 5.96289C10.1395 5.96289 11.4071 7.22494 11.4071 8.78175Z" fill="white"/>
<path d="M14.3347 13.2043C16.1548 13.1372 19.5926 13.8013 19.5926 16.0621C19.5926 16.2505 19.4791 16.6272 19.0249 16.6272H15.619V16.0621C15.619 14.6491 14.7291 13.5446 14.3347 13.2043Z" fill="white"/>
<path d="M17.0382 9.70373C17.0382 10.8743 16.0851 11.8232 14.9095 11.8232C13.7338 11.8232 12.7808 10.8743 12.7808 9.70373C12.7808 8.53319 13.7338 7.58428 14.9095 7.58428C16.0851 7.58428 17.0382 8.53319 17.0382 9.70373Z" fill="white"/>
</svg>
