<svg width="17" height="13" viewBox="0 0 17 13" fill="none" xmlns="http://www.w3.org/2000/svg">
<path d="M5.57573 8.01008C7.39577 7.94296 10.9752 8.53358 10.7325 11.433C10.6516 11.9162 10.2944 12.037 10.1258 12.037H5.57573L1.02565 12.037C0.857125 12.037 0.499858 11.9162 0.418967 11.433C0.176296 8.53358 3.75569 7.94296 5.57573 8.01008Z" fill="#63707D"/>
<path d="M8.4069 3.78181C8.4069 5.33863 7.13934 6.60067 5.57573 6.60067C4.01212 6.60067 2.74456 5.33863 2.74456 3.78181C2.74456 2.225 4.01212 0.962952 5.57573 0.962952C7.13934 0.962952 8.4069 2.225 8.4069 3.78181Z" fill="#63707D"/>
<path d="M11.3346 8.20441C13.1546 8.13729 16.5924 8.80138 16.5924 11.0621C16.5924 11.2505 16.4789 11.6273 16.0248 11.6273H12.6188V11.0621C12.6188 9.64916 11.729 8.54469 11.3346 8.20441Z" fill="#63707D"/>
<path d="M14.038 4.70379C14.038 5.87432 13.0849 6.82323 11.9093 6.82323C10.7336 6.82323 9.78057 5.87432 9.78057 4.70379C9.78057 3.53325 10.7336 2.58434 11.9093 2.58434C13.0849 2.58434 14.038 3.53325 14.038 4.70379Z" fill="#63707D"/>
</svg>
